  <svg width="92" height="92" viewBox="0 0 92 92" fill="none" xmlns="http://www.w3.org/2000/svg">
    <path d="M1.15 92H90.85C91.4856 92 92 91.4856 92 90.85C92 90.2144 91.4856 89.7 90.85 89.7H53.1662V76.9725H82.8C85.337 76.9725 87.4 74.9095 87.4 72.3725V15.0747C87.4 12.5377 85.337 10.4747 82.8 10.4747H53.1662V4.6C53.1662 2.06304 51.1031 0 48.5662 0H43.4338C40.8969 0 38.8338 2.06304 38.8338 4.6V10.4747H9.2C6.66304 10.4747 4.6 12.5377 4.6 15.0747V72.3725C4.6 74.9095 6.66304 76.9725 9.2 76.9725H38.8338V89.7H1.15C0.514355 89.7 0 90.2144 0 90.85C0 91.4856 0.514355 92 1.15 92ZM50.8662 89.7H41.1338V76.9725H50.8662V89.7ZM41.1338 4.6C41.1338 3.33208 42.1659 2.3 43.4338 2.3H48.5662C49.8341 2.3 50.8662 3.33208 50.8662 4.6V10.4747H41.1338V4.6ZM9.2 74.6725C7.93208 74.6725 6.9 73.6404 6.9 72.3725V15.0747C6.9 13.8067 7.93208 12.7747 9.2 12.7747H82.8C84.0679 12.7747 85.1 13.8067 85.1 15.0747V72.3725C85.1 73.6404 84.0679 74.6725 82.8 74.6725H9.2Z" fill="#60A079" />
    <path d="M67.53 40.0667C65.6028 40.0667 63.7755 40.4895 62.1217 41.2323L58.0717 24.5271H65.6837C65.7859 24.5563 65.8926 24.572 66.0016 24.572C67.9231 24.572 69.4864 26.1353 69.4864 28.0568C69.4864 29.9784 67.9231 31.5416 66.0016 31.5416C65.3659 31.5416 64.8516 32.056 64.8516 32.6917C64.8516 33.3273 65.3659 33.8417 66.0016 33.8417C69.191 33.8417 71.7864 31.2463 71.7864 28.0568C71.7864 24.9718 69.3595 22.4438 66.3149 22.2799C66.2048 22.2451 66.088 22.2271 65.969 22.2271H56.6095C56.2569 22.2271 55.9233 22.3888 55.7055 22.6662C55.4876 22.9436 55.409 23.3052 55.4921 23.6478L57.4058 31.5416H37.1982L34.5045 23.1604H38.0242C38.6599 23.1604 39.1742 22.646 39.1742 22.0104C39.1742 21.3747 38.6599 20.8604 38.0242 20.8604H28.1695C27.5338 20.8604 27.0195 21.3747 27.0195 22.0104C27.0195 22.646 27.5338 23.1604 28.1695 23.1604H32.0886L35.2069 32.8628L30.1838 41.3785C28.4513 40.5466 26.5192 40.0667 24.4724 40.0667C17.1625 40.0667 11.2148 46.0144 11.2148 53.3243C11.2148 60.6342 17.1625 66.5818 24.4724 66.5818C30.7385 66.5818 35.9911 62.2066 37.367 56.3542L43.7304 57.2763C43.7847 57.2851 43.839 57.2883 43.8933 57.2885C43.8936 57.2885 43.894 57.2886 43.8944 57.2886C43.8945 57.2886 43.8946 57.2886 43.8947 57.2886C43.8949 57.2886 43.8952 57.2886 43.8955 57.2886C44.0715 57.2886 44.2412 57.244 44.3969 57.168C44.4453 57.1446 44.48 57.1008 44.525 57.0705C44.6116 57.0121 44.7045 56.9629 44.7737 56.881C44.7901 56.8616 44.7995 56.8384 44.8144 56.8181C44.8212 56.809 44.8323 56.8061 44.8389 56.7967L58.7056 36.9034L60.0376 42.3979C56.56 44.7902 54.2725 48.7938 54.2725 53.3243C54.2725 60.6342 60.2201 66.5818 67.53 66.5818C74.8399 66.5818 80.7876 60.6342 80.7876 53.3243C80.7876 46.0144 74.8399 40.0667 67.53 40.0667ZM24.4724 64.2818C18.4304 64.2818 13.5148 59.3663 13.5148 53.3243C13.5148 47.2823 18.4304 42.3667 24.4724 42.3667C26.093 42.3667 27.6273 42.7297 29.0128 43.3638L23.4945 52.7189C23.4904 52.7256 23.4867 52.7321 23.4827 52.7389L23.4819 52.7403C23.4713 52.7583 23.4718 52.7787 23.4622 52.797C23.4045 52.9094 23.3536 53.0272 23.3348 53.1592C23.3345 53.161 23.3353 53.1626 23.335 53.1644C23.314 53.315 23.3219 53.467 23.3593 53.612C23.3858 53.7147 23.4412 53.8041 23.494 53.8945C23.5157 53.932 23.5237 53.9756 23.5498 54.0106C23.6395 54.131 23.753 54.2328 23.8841 54.3109C23.8858 54.3119 23.8867 54.3137 23.8884 54.3148C24.0082 54.3853 24.1363 54.4234 24.2658 54.4471C24.2808 54.4498 24.2922 54.4597 24.3073 54.4619L35.0799 56.0228C33.8729 60.7617 29.5817 64.2818 24.4724 64.2818ZM35.4086 53.7468L26.3336 52.4323L30.9908 44.5371C33.6781 46.5359 35.43 49.7253 35.43 53.3243C35.43 53.4669 35.414 53.6054 35.4086 53.7468ZM37.6918 54.0775C37.706 53.8268 37.73 53.5786 37.73 53.3243C37.73 48.8831 35.527 44.9545 32.1645 42.5473L36.1487 35.7931L42.2368 54.7359L37.6918 54.0775ZM44.2798 53.5758L37.9374 33.8417H57.9634L57.982 33.9186L44.2798 53.5758ZM67.53 64.2818C61.488 64.2818 56.5725 59.3663 56.5725 53.3243C56.5725 49.7262 58.3235 46.5373 61.0098 44.5385L66.9371 53.9375C67.1561 54.2845 67.5289 54.4743 67.9107 54.4743C68.1208 54.4743 68.333 54.417 68.5228 54.2968C69.0607 53.9577 69.2213 53.2479 68.8822 52.7111L62.9884 43.3645C64.3742 42.7299 65.9089 42.3667 67.53 42.3667C73.572 42.3667 78.4876 47.2823 78.4876 53.3243C78.4876 59.3663 73.572 64.2818 67.53 64.2818Z" fill="#60A079" />
  </svg>
