  <svg width="92" height="92" viewBox="0 0 92 92" fill="none" xmlns="http://www.w3.org/2000/svg">
    <path d="M85.6918 8.45991H52.4794V5.22105C52.4794 2.34268 50.1373 0 47.2584 0H44.2817C41.4028 0 39.0601 2.34268 39.0601 5.22105V8.45991H6.30815C2.83008 8.45991 0 11.29 0 14.7681V72.7948C0 76.2729 2.83008 79.1029 6.30815 79.1029H39.0601V89.7H1.15C0.514917 89.7 0 90.2144 0 90.85C0 91.4856 0.514917 92 1.15 92H90.85C91.4851 92 92 91.4856 92 90.85C92 90.2144 91.4851 89.7 90.85 89.7H52.4794V79.1029H85.6918C89.1699 79.1029 92 76.2729 92 72.7948V14.7681C92 11.29 89.1699 8.45991 85.6918 8.45991ZM41.3601 5.22105C41.3601 3.6106 42.6707 2.3 44.2817 2.3H47.2584C48.8688 2.3 50.1794 3.6106 50.1794 5.22105V8.45991H41.3601V5.22105ZM50.1794 89.7H41.3601V79.1029H50.1794V89.7ZM89.7 72.7948C89.7 75.0049 87.902 76.8029 85.6918 76.8029H6.30815C4.098 76.8029 2.3 75.0049 2.3 72.7948V14.7681C2.3 12.5579 4.098 10.7599 6.30815 10.7599H85.6918C87.902 10.7599 89.7 12.5579 89.7 14.7681V72.7948Z" fill="#60A079" />
    <path d="M67.7749 26.6882C62.6207 26.6882 58.3599 30.5875 57.7871 35.5917H34.2087C33.636 30.5875 29.3751 26.6882 24.2209 26.6882C18.6776 26.6882 14.168 31.1984 14.168 36.7417C14.168 39.464 15.2388 41.9965 17.1469 43.8742C15.2388 45.752 14.168 48.2855 14.168 51.0078C14.168 56.5512 18.6776 61.0602 24.2209 61.0602C29.3796 61.0602 33.6427 57.1554 34.2099 52.096H57.7804C58.3251 57.1284 62.5994 61.0602 67.7749 61.0602C73.3183 61.0602 77.8279 56.5512 77.8279 51.0078C77.8279 48.2855 76.7571 45.7531 74.849 43.8742C76.7571 41.9954 77.8279 39.464 77.8279 36.7417C77.8279 31.1984 73.3183 26.6882 67.7749 26.6882ZM72.3991 44.7962C74.3874 46.2787 75.5279 48.5427 75.5279 51.0078C75.5279 55.2821 72.0498 58.7602 67.7749 58.7602C63.5001 58.7602 60.022 55.2821 60.022 51.0078V50.946C60.022 50.3104 59.5071 49.796 58.872 49.796H33.1239C32.4888 49.796 31.9739 50.3722 31.9739 51.0078C31.9739 55.2821 28.4958 58.7602 24.2209 58.7602C19.946 58.7602 16.468 55.2821 16.468 51.0078C16.468 48.5427 17.6084 46.2787 19.5968 44.7962C19.8882 44.5795 20.0595 44.237 20.0595 43.8742C20.0595 43.5115 19.8882 43.1689 19.5968 42.9522C17.6084 41.4698 16.468 39.2057 16.468 36.7417C16.468 32.4663 19.946 28.9882 24.2209 28.9882C28.4958 28.9882 31.9739 32.4663 31.9739 36.7417C31.9739 37.3774 32.4888 37.8917 33.1239 37.8917H58.872C59.5071 37.8917 60.022 37.3774 60.022 36.7417C60.022 32.4663 63.5001 28.9882 67.7749 28.9882C72.0498 28.9882 75.5279 32.4663 75.5279 36.7417C75.5279 39.2057 74.3874 41.4698 72.3991 42.9522C72.1076 43.1689 71.9364 43.5115 71.9364 43.8742C71.9364 44.237 72.1076 44.5795 72.3991 44.7962Z" fill="#60A079" />
  </svg>
