  <svg width="92" height="92" viewBox="0 0 92 92" fill="none" xmlns="http://www.w3.org/2000/svg">
    <path d="M77.0534 37.6807C84.2855 32.3491 87.8668 26.5145 85.8373 23C84.5823 20.8263 81.4714 20.0093 77.0798 20.7C74.521 21.1026 71.6646 21.9869 68.7369 23.2601C72.3311 15.0306 72.5137 8.19143 69 6.16272C65.0565 3.88771 59.0977 8.50694 54.3218 14.9477C53.3209 6.01876 50.0584 0 46 0C41.4482 0 38.5966 6.98128 37.6807 14.9469C32.3481 7.71449 26.5109 4.13323 23 6.16272C20.8263 7.41772 20.0093 10.528 20.7 14.9202C21.1026 17.4789 21.9868 20.3351 23.26 23.2628C15.0315 19.6686 8.19242 19.4873 6.16272 23C3.8868 26.9421 8.50715 32.9023 14.9478 37.6782C6.01876 38.6791 0 41.9415 0 46C0 50.5518 6.98107 53.4033 14.9466 54.3192C7.71449 59.6509 4.13323 65.4855 6.16272 69C7.12686 70.67 9.18596 71.5392 12.0801 71.5392C12.9532 71.5392 13.9022 71.46 14.9202 71.3C17.479 70.8974 20.3354 70.0131 23.2631 68.7399C19.6689 76.9694 19.4863 83.8086 23 85.8373C23.6963 86.2388 24.4538 86.4258 25.2584 86.4258C29.0097 86.4258 33.7436 82.3492 37.6772 77.0436C38.677 85.9774 41.9403 92 46 92C50.5502 92 53.4012 85.0237 54.3181 77.0617C58.6508 82.9388 63.3164 86.401 66.7988 86.401C67.6018 86.401 68.3419 86.2174 69 85.8373C71.1737 84.5823 71.9907 81.472 71.3 77.0798C70.8973 74.5205 70.0126 71.6633 68.739 68.7349C72.9757 70.5853 76.8484 71.5425 79.8801 71.542C82.7371 71.542 84.8529 70.7048 85.8373 69C88.1132 65.0579 83.4929 59.0977 77.0522 54.3218C85.9812 53.3209 92 50.0585 92 46C92 41.4482 85.0189 38.5967 77.0534 37.6807ZM77.4369 22.9725C80.7257 22.4564 83.1212 22.8956 83.845 24.15C85.1516 26.4127 81.5409 32.1194 73.4313 37.4024C72.7528 37.3747 72.074 37.3582 71.3977 37.3582C65.8531 37.3582 60.6041 38.2562 56.7912 39.8204C56.0885 38.5983 55.1863 37.5077 54.1264 36.591C56.4668 33.584 60.3019 30.4203 64.824 27.8094C69.2044 25.2803 73.6837 23.5626 77.4369 22.9725ZM46 56.1484C40.4044 56.1484 35.8516 51.5956 35.8516 46C35.8516 40.4044 40.4044 35.8516 46 35.8516C51.5956 35.8516 56.1484 40.4044 56.1484 46C56.1484 51.5956 51.5956 56.1484 46 56.1484ZM67.85 8.155C70.1122 9.46076 69.8386 16.2058 65.4604 24.8327C64.8638 25.1468 64.2678 25.4744 63.674 25.8172C58.8714 28.5905 54.7739 31.9931 52.2545 35.2543C51.0584 34.5553 49.7403 34.0468 48.3347 33.7788C48.8601 30.0053 50.5986 25.3517 53.2072 20.8342C58.6006 11.4921 65.2535 6.65125 67.85 8.155ZM46 2.3C48.6126 2.3 51.7492 8.28065 52.27 17.945C51.9068 18.5188 51.553 19.0985 51.2149 19.6842C48.4455 24.4812 46.5989 29.4719 46.0453 33.5539C46.03 33.5538 46.0153 33.5516 46 33.5516C44.5673 33.5516 43.1962 33.8071 41.9141 34.2545C40.4805 30.7243 39.6582 25.8225 39.6582 20.6023C39.6582 9.81655 43.0003 2.3 46 2.3ZM24.15 8.155C26.4121 6.84785 32.1189 10.4591 37.4024 18.5687C37.3747 19.2472 37.3582 19.926 37.3582 20.6023C37.3582 26.1469 38.2562 31.3959 39.8204 35.2088C38.5983 35.9115 37.5077 36.8137 36.591 37.8736C33.584 35.5332 30.4203 31.6981 27.8094 27.1761C25.2803 22.7956 23.5626 18.3163 22.9725 14.5631C22.4553 11.2748 22.8956 8.87937 24.15 8.155ZM8.155 24.15C9.4602 21.8872 16.2052 22.1614 24.8327 26.5396C25.1468 27.1362 25.4744 27.7322 25.8172 28.326C28.5905 33.1286 31.9931 37.2261 35.2543 39.7455C34.5553 40.9416 34.0468 42.2597 33.7788 43.6653C30.0053 43.1399 25.3517 41.4014 20.8342 38.7928C11.4933 33.4 6.65518 26.7476 8.155 24.15ZM2.3 46C2.3 43.3874 8.28065 40.2506 17.945 39.73C18.5188 40.0932 19.0985 40.447 19.6842 40.7851C24.4812 43.5545 29.4719 45.4011 33.5539 45.9547C33.5538 45.97 33.5516 45.9847 33.5516 46C33.5516 47.4327 33.8071 48.8038 34.2545 50.0859C30.7243 51.5195 25.8225 52.3418 20.6023 52.3418C9.81655 52.3418 2.3 48.9997 2.3 46ZM14.5631 69.0275C11.2754 69.5458 8.87993 69.105 8.155 67.85C6.84841 65.5873 10.4591 59.8806 18.5687 54.5976C19.2472 54.6253 19.926 54.6418 20.6023 54.6418C26.1469 54.6418 31.3959 53.7438 35.2088 52.1796C35.9115 53.4017 36.8137 54.4923 37.8736 55.409C35.5332 58.416 31.6981 61.5797 27.1761 64.1906C22.7956 66.7197 18.3163 68.4374 14.5631 69.0275ZM24.15 83.845C21.8878 82.5392 22.1614 75.7942 26.5396 67.1673C27.1362 66.8532 27.7322 66.5256 28.326 66.1828C33.1286 63.4095 37.2261 60.0069 39.7455 56.7457C40.9416 57.4447 42.2597 57.9531 43.6653 58.2212C43.1399 61.9947 41.4014 66.6483 38.7928 71.1658C33.3994 80.5079 26.7442 85.3437 24.15 83.845ZM46 89.7C43.387 89.7 40.2497 83.7179 39.7297 74.051C40.0923 73.4781 40.4475 72.9006 40.7851 72.3158C43.5545 67.5188 45.4011 62.5281 45.9547 58.4461C45.97 58.4462 45.9847 58.4484 46 58.4484C47.4327 58.4484 48.8038 58.1928 50.0859 57.7455C51.5195 61.2757 52.3418 66.1775 52.3418 71.3977C52.3418 82.1834 48.9997 89.7 46 89.7ZM67.85 83.845C65.5812 85.1482 59.88 81.5402 54.5976 73.4313C54.6253 72.7528 54.6418 72.074 54.6418 71.3977C54.6418 65.8531 53.7438 60.6041 52.1796 56.7912C53.4017 56.0885 54.4923 55.1863 55.409 54.1264C58.416 56.4668 61.5797 60.3019 64.1906 64.824C66.7197 69.2044 68.4374 73.6837 69.0275 77.4369C69.5447 80.7252 69.1044 83.1206 67.85 83.845ZM83.845 67.85C82.5387 70.1128 75.7948 69.8391 67.1673 65.4604C66.8532 64.8638 66.5256 64.2678 66.1828 63.674C63.4095 58.8714 60.0069 54.7739 56.7457 52.2545C57.4447 51.0584 57.9531 49.7403 58.2212 48.3347C61.9947 48.8601 66.6483 50.5986 71.1658 53.2072C80.5067 58.6 85.3448 65.2524 83.845 67.85ZM74.055 52.27C73.4812 51.9068 72.9015 51.553 72.3158 51.2149C67.5188 48.4455 62.5281 46.5989 58.4461 46.0453C58.4462 46.03 58.4484 46.0153 58.4484 46C58.4484 44.5673 58.1928 43.1962 57.7455 41.9141C61.2757 40.4805 66.1775 39.6582 71.3977 39.6582C82.1834 39.6582 89.7 43.0003 89.7 46C89.7 48.6126 83.7194 51.7494 74.055 52.27Z" fill="#60A079" />
  </svg>
