<svg width="92" height="92" viewBox="0 0 92 92" fill="none" xmlns="http://www.w3.org/2000/svg">
<path d="M91.188 9.25054L61.288 0.0505372C61.0679 -0.0168457 60.8321 -0.0168457 60.612 0.0505372L31.05 9.14722L1.48804 0.0505372C1.13877 -0.0539062 0.760303 0.00786131 0.467187 0.224609C0.172949 0.441357 0 0.78501 0 1.15V81.65C0 82.1554 0.329053 82.6012 0.811963 82.7495L30.712 91.9495C30.9321 92.0168 31.1679 92.0168 31.388 91.9495L60.95 82.8528L90.512 91.9495C90.6231 91.9832 90.7366 92 90.85 92C91.0926 92 91.3329 91.9225 91.5328 91.7754C91.827 91.5586 92 91.215 92 90.85V10.35C92 9.84463 91.6709 9.39878 91.188 9.25054ZM2.3 26.2947C4.5416 26.3582 10.7854 27.2422 15.5719 34.7242C9.34417 38.2682 4.47106 40.073 2.3 40.7874V26.2947ZM2.3 43.2063C4.12278 42.6584 9.54407 40.8416 16.7342 36.736C17.3543 37.9227 17.9388 39.2404 18.4719 40.7104C19.4546 43.4201 20.5306 45.9153 21.6745 48.2367C19.0431 50.5563 16.7982 53.3713 14.959 56.6914C9.94318 65.7491 4.78586 70.5304 2.3 72.4958V43.2063ZM29.9 89.2934L2.3 80.801V75.355C3.88785 74.3084 10.5121 69.4689 16.9715 57.8055C18.5887 54.885 20.5194 52.4065 22.7534 50.3334C24.905 54.3062 27.2991 57.6312 29.9 60.2609V89.2934ZM29.9 56.8786C27.9799 54.6253 26.1888 51.9232 24.5403 48.8122C26.1781 47.5433 27.9615 46.4661 29.9 45.5861V56.8786ZM29.9 43.1338C27.5852 44.0995 25.4456 45.2958 23.5023 46.7453C22.4851 44.6339 21.5223 42.3733 20.6349 39.9266C20.0513 38.3173 19.4054 36.8713 18.7148 35.5698C22.1656 33.4857 25.9527 30.8968 29.9 27.7042V43.1338ZM29.9 24.7242C25.5483 28.376 21.3389 31.2813 17.5404 33.5688C12.2013 25.2381 4.97699 24.1229 2.3 24.0135V2.70654L29.9 11.1996V24.7242ZM59.8 80.8004L32.2 89.2933V62.3683C36.3245 65.7512 40.8906 67.5232 45.7619 67.5232C50.9792 67.5232 55.6574 66.5746 59.8 64.7156V80.8004ZM59.8 62.218C55.7397 64.2194 51.0767 65.2232 45.7619 65.2232C40.8724 65.2232 36.2969 63.1705 32.2 59.289V44.6497C36.1458 43.2461 40.6565 42.55 45.763 42.55C50.8464 42.55 55.5887 44.2228 59.8 47.4011V62.218ZM59.8 44.5708C55.5484 41.7384 50.8186 40.25 45.763 40.25C40.7438 40.25 36.2266 40.938 32.2 42.2762V25.8306C38.5411 20.7622 49.2795 19.3223 59.8 19.4049V44.5708ZM59.8 17.0904C47.4417 16.9935 38.1932 18.9685 32.2 22.9808V11.1996L59.8 2.70668V17.0904ZM62.1 19.4453C74.3967 19.7893 85.8754 22.0033 89.0376 22.6603C87.3142 24.1605 80.8194 30.4799 74.5018 45.3161C73.021 48.7924 71.2856 51.7948 69.2977 54.3503C67.1416 51.1247 64.7257 48.4328 62.1 46.2846V19.4453ZM62.1 49.3479C64.1386 51.251 66.0283 53.5384 67.7455 56.1917C66.0363 58.0681 64.1532 59.6412 62.1 60.928V49.3479ZM89.7 89.2935L62.1 80.8004V63.564C64.6153 62.1521 66.9006 60.3523 68.9658 58.1889C69.651 59.3775 70.3119 60.6151 70.9316 61.9293C76.4024 73.5326 87.1483 74.25 89.7 74.2527V89.2935ZM89.7 71.9575C87.6726 71.9724 77.9751 71.4752 73.0115 60.9478C72.2493 59.3314 71.4352 57.8073 70.5769 56.3692C72.9193 53.52 74.9432 50.148 76.6176 46.2167C81.9147 33.7778 87.3737 27.5057 89.7 25.2011V71.9575ZM89.7 20.4475C87.0839 19.8962 77.5065 17.999 66.5978 17.3275C65.0529 17.2327 63.5634 17.175 62.1 17.1349V2.70661L89.7 11.199V20.4475Z" fill="#60A079"/>
</svg>
