  <svg width="92" height="92" viewBox="0 0 92 92" fill="none" xmlns="http://www.w3.org/2000/svg">
    <path d="M46 0C20.6356 0 0 20.6356 0 46C0 71.3644 20.6356 92 46 92C71.3644 92 92 71.3644 92 46C92 20.6356 71.3644 0 46 0ZM2.3 46C2.3 21.9041 21.9041 2.3 46 2.3C57.738 2.3 68.402 6.96095 76.2623 14.5187L49.5247 41.2562H16.2518C14.1231 41.2562 12.3912 42.9881 12.3912 45.1168V47.1695C12.3912 49.2993 14.1231 51.0301 16.2518 51.0301H39.7486L14.5187 76.2611C6.96095 68.402 2.3 57.738 2.3 46ZM50.4758 43.5562H59.9713V48.7313H45.3008L50.4758 43.5562ZM42.0486 48.7313H16.2518C15.3904 48.7313 14.6912 48.0309 14.6912 47.1707V45.118C14.6912 44.2578 15.3916 43.5574 16.2518 43.5574H47.2236L42.0486 48.7313ZM46 89.7C34.4678 89.7 23.9718 85.2023 16.1541 77.878L43.0008 51.0312H75.3733C77.502 51.0312 79.2338 49.2994 79.2338 47.1707V45.118C79.2338 42.9882 77.502 41.2574 75.3733 41.2574H52.7758L77.878 16.1552C85.2023 23.9729 89.7 34.4689 89.7 46.0011C89.7 70.0959 70.0959 89.7 46 89.7ZM62.2725 48.7313V43.5562H75.3745C76.2358 43.5562 76.935 44.2566 76.935 45.1168V47.1695C76.935 48.0297 76.2346 48.7301 75.3745 48.7301H62.2725V48.7313Z" fill="#60A079" />
    <path d="M18.2689 37.3568C18.8933 37.6201 19.5431 37.7432 20.1825 37.7432C22.0846 37.7432 23.8981 36.6415 24.7181 34.8061C28.0922 35.3983 31.5353 33.5951 32.8946 30.3579V30.3567C33.6685 28.5133 33.6789 26.4801 32.9222 24.6297C32.1655 22.7794 30.7349 21.3338 28.8926 20.5599C25.0849 18.9591 20.6919 20.7577 19.0946 24.5607C18.6208 25.6877 18.4402 26.8987 18.5564 28.1188C17.2431 28.5719 16.1678 29.5552 15.617 30.8662C14.559 33.387 15.7481 36.2988 18.2689 37.3568ZM17.7376 31.7563C18.1182 30.8512 18.9738 30.2371 19.9709 30.152C20.3078 30.1244 20.6149 29.9496 20.8115 29.6736C21.007 29.3988 21.0726 29.0515 20.9898 28.7237C20.7057 27.6071 20.7839 26.4755 21.214 25.4508C22.0466 23.4694 23.974 22.2745 26.0003 22.2745C26.6685 22.2745 27.347 22.4045 28.0013 22.6793C30.6371 23.7856 31.8803 26.8308 30.774 29.4666V29.4655C29.7252 31.9633 26.887 33.2237 24.311 32.3324C23.9924 32.2243 23.6405 32.2577 23.3496 32.4302C23.0598 32.6027 22.8585 32.8936 22.8022 33.2271C22.7631 33.4537 22.7102 33.6457 22.64 33.8136C22.0708 35.1649 20.5102 35.8008 19.159 35.235C17.8077 34.6692 17.1706 33.1075 17.7376 31.7563Z" fill="#60A079" />
  </svg>
